# xmcd CD database file
#
# Track frame offsets:
#	150
#	12880
#	29695
#	46473
#	56340
#	69683
#	82540
#	94450
#	108425
#	124928
#
# Disc length: 1834 seconds
#
# Revision: 1
# Processed by: cddbd v1.5.1PL2 Copyright (c) Steve Scherf et al.
# Submitted via: CDex 1.51
#
DISCID=8007280a
DTITLE=Robert Lucas - Across the River
DYEAR=1989
DGENRE=Blues
TTITLE0=Write Me A Few of Your Lines
TTITLE1=Ground Hog Blues
TTITLE2=Across the River
TTITLE3=I Can't Feel Satisfied
TTITLE4=Fellin' Shaky
TTITLE5=Terraplane Blues
TTITLE6=If You See That Woman
TTITLE7=Crossroads
TTITLE8=Iodine In My Coffee
TTITLE9=Luke's Boogie
EXTD=YEAR: 1989
EXTT0=
EXTT1=
EXTT2=
EXTT3=
EXTT4=
EXTT5=
EXTT6=
EXTT7=
EXTT8=
EXTT9=
PLAYORDER=
